<mxfile host="app.diagrams.net" modified="2022-03-17T07:00:32.166Z" agent="5.0 (Macintosh; Intel Mac OS X 10_15_7) AppleWebKit/537.36 (KHTML, like Gecko) Chrome/99.0.4844.51 Safari/537.36" etag="SultWGFl8U5vzCfOWvXt" version="17.1.3" type="github">
  <diagram id="9ZpSaxzcpz4ULXaL1X-T" name="第 1 页">
    <mxGraphModel dx="946" dy="614" grid="1" gridSize="10" guides="1" tooltips="1" connect="1" arrows="1" fold="1" page="1" pageScale="1" pageWidth="827" pageHeight="1169" background="none" math="0" shadow="0">
      <root>
        <mxCell id="0" />
        <mxCell id="1" parent="0" />
        <mxCell id="WtGAIHKAsRFHcsW806fG-1" value="clickhouse.c" style="shape=umlLifeline;perimeter=lifelinePerimeter;whiteSpace=wrap;html=1;container=1;collapsible=0;recursiveResize=0;outlineConnect=0;" vertex="1" parent="1">
          <mxGeometry x="300" y="50" width="170" height="300" as="geometry" />
        </mxCell>
        <mxCell id="WtGAIHKAsRFHcsW806fG-10" value="" style="html=1;points=[];perimeter=orthogonalPerimeter;" vertex="1" parent="WtGAIHKAsRFHcsW806fG-1">
          <mxGeometry x="80" y="90" width="10" height="80" as="geometry" />
        </mxCell>
        <mxCell id="WtGAIHKAsRFHcsW806fG-12" value="return" style="html=1;verticalAlign=bottom;endArrow=open;dashed=1;endSize=8;exitX=0;exitY=0.95;rounded=0;" edge="1" source="WtGAIHKAsRFHcsW806fG-10" parent="WtGAIHKAsRFHcsW806fG-1">
          <mxGeometry relative="1" as="geometry">
            <mxPoint x="-25" y="166" as="targetPoint" />
          </mxGeometry>
        </mxCell>
        <mxCell id="WtGAIHKAsRFHcsW806fG-3" value="" style="shape=umlLifeline;participant=umlActor;perimeter=lifelinePerimeter;whiteSpace=wrap;html=1;container=1;collapsible=0;recursiveResize=0;verticalAlign=top;spacingTop=36;outlineConnect=0;" vertex="1" parent="1">
          <mxGeometry x="210" y="50" width="20" height="300" as="geometry" />
        </mxCell>
        <mxCell id="WtGAIHKAsRFHcsW806fG-6" value="" style="html=1;points=[];perimeter=orthogonalPerimeter;" vertex="1" parent="WtGAIHKAsRFHcsW806fG-3">
          <mxGeometry x="5" y="70" width="10" height="20" as="geometry" />
        </mxCell>
        <mxCell id="WtGAIHKAsRFHcsW806fG-4" value="https.c" style="shape=umlLifeline;perimeter=lifelinePerimeter;whiteSpace=wrap;html=1;container=1;collapsible=0;recursiveResize=0;outlineConnect=0;" vertex="1" parent="1">
          <mxGeometry x="490" y="50" width="100" height="300" as="geometry" />
        </mxCell>
        <mxCell id="WtGAIHKAsRFHcsW806fG-16" value="" style="html=1;points=[];perimeter=orthogonalPerimeter;" vertex="1" parent="WtGAIHKAsRFHcsW806fG-4">
          <mxGeometry x="45" y="100" width="10" height="80" as="geometry" />
        </mxCell>
        <mxCell id="WtGAIHKAsRFHcsW806fG-18" value="return" style="html=1;verticalAlign=bottom;endArrow=open;dashed=1;endSize=8;exitX=0;exitY=0.95;rounded=0;" edge="1" source="WtGAIHKAsRFHcsW806fG-16" parent="WtGAIHKAsRFHcsW806fG-4">
          <mxGeometry relative="1" as="geometry">
            <mxPoint x="-25" y="176" as="targetPoint" />
          </mxGeometry>
        </mxCell>
        <mxCell id="WtGAIHKAsRFHcsW806fG-5" value="http.c" style="shape=umlLifeline;perimeter=lifelinePerimeter;whiteSpace=wrap;html=1;container=1;collapsible=0;recursiveResize=0;outlineConnect=0;" vertex="1" parent="1">
          <mxGeometry x="680" y="50" width="100" height="300" as="geometry" />
        </mxCell>
        <mxCell id="WtGAIHKAsRFHcsW806fG-8" value="1. audit event" style="html=1;verticalAlign=bottom;endArrow=block;rounded=0;" edge="1" parent="1">
          <mxGeometry width="80" relative="1" as="geometry">
            <mxPoint x="90" y="123" as="sourcePoint" />
            <mxPoint x="210" y="123" as="targetPoint" />
          </mxGeometry>
        </mxCell>
        <mxCell id="WtGAIHKAsRFHcsW806fG-11" value="2. streaminit" style="html=1;verticalAlign=bottom;endArrow=block;entryX=0;entryY=0;rounded=0;" edge="1" target="WtGAIHKAsRFHcsW806fG-10" parent="1">
          <mxGeometry relative="1" as="geometry">
            <mxPoint x="220" y="140" as="sourcePoint" />
          </mxGeometry>
        </mxCell>
        <mxCell id="WtGAIHKAsRFHcsW806fG-17" value="3. https_session_init" style="html=1;verticalAlign=bottom;endArrow=block;entryX=0;entryY=0;rounded=0;" edge="1" target="WtGAIHKAsRFHcsW806fG-16" parent="1">
          <mxGeometry relative="1" as="geometry">
            <mxPoint x="390" y="150" as="sourcePoint" />
            <Array as="points">
              <mxPoint x="410" y="150" />
            </Array>
          </mxGeometry>
        </mxCell>
      </root>
    </mxGraphModel>
  </diagram>
</mxfile>
